<svg width="32" height="32" viewBox="0 0 256 256" fill="none" xmlns="http://www.w3.org/2000/svg"><path d="M52 232H204C206.209 232 208 230.209 208 228V72H172C165.373 72 160 66.6274 160 60V24H52C49.7909 24 48 25.7909 48 28V228C48 230.209 49.7909 232 52 232Z" fill="white"></path><path d="M204.34 64.0002L168 27.6602V60.0002C168 62.2093 169.791 64.0002 172 64.0002H204.34Z" fill="white"></path><path opacity="0.67" fill-rule="evenodd" clip-rule="evenodd" d="M216 68C215.997 67.4072 215.86 66.8227 215.6 66.29C215.067 64.2261 213.993 62.3415 212.49 60.83L171.17 19.52C168.928 17.2596 165.874 15.9918 162.69 16H52C45.3726 16 40 21.3726 40 28V228C40 234.627 45.3726 240 52 240H204C210.627 240 216 234.627 216 228V69.31V68.43V68ZM204.34 64H172C169.791 64 168 62.2092 168 60V27.66L204.34 64ZM52 232H204C206.209 232 208 230.209 208 228V72H172C165.373 72 160 66.6275 160 60V24H52C49.7909 24 48 25.7909 48 28V228C48 230.209 49.7909 232 52 232Z" fill="#605E5C"></path><rect x="64" y="180" width="128" height="8" rx="4" fill="#C8C6C4"></rect><rect x="64" y="196" width="128" height="8" rx="4" fill="#C8C6C4"></rect><rect x="127.75" y="182.47" width="1" height="0.06" rx="0.03" fill="#D2D0CE"></rect><path d="M142 89L114 161" stroke="#69AFE5" stroke-width="8" stroke-linecap="round"></path><path d="M92 108L72 124.88L92 142" stroke="#69AFE5" stroke-width="8" stroke-linecap="round" stroke-linejoin="round"></path><path d="M164 108L184 124.88L164 142" stroke="#69AFE5" stroke-width="8" stroke-linecap="round" stroke-linejoin="round"></path></svg>